<svg xmlns="http://www.w3.org/2000/svg" viewBox="0 0 16 16" width="16" height="16">
  <path fill="currentColor" fill-rule="evenodd" clip-rule="evenodd" d="M1.5 2A1.5 1.5 0 0 1 3 0.5h10A1.5 1.5 0 0 1 14.5 2v2A1.5 1.5 0 0 1 13 5.5H3A1.5 1.5 0 0 1 1.5 4V2Zm2 1a0.75 0.75 0 1 0 0 1.5 0.75 0.75 0 0 0 0-1.5Z
  M1.5 7A1.5 1.5 0 0 1 3 5.5h10A1.5 1.5 0 0 1 14.5 7v2A1.5 1.5 0 0 1 13 10.5H3A1.5 1.5 0 0 1 1.5 9V7Zm2 1a0.75 0.75 0 1 0 0 1.5 0.75 0.75 0 0 0 0-1.5Z
  M1.5 12A1.5 1.5 0 0 1 3 10.5h10a1.5 1.5 0 0 1 1.5 1.5v2a1.5 1.5 0 0 1-1.5 1.5H3A1.5 1.5 0 0 1 1.5 14v-2Zm2 1a0.75 0.75 0 1 0 0 1.5 0.75 0.75 0 0 0 0-1.5Z"/>
</svg>
